<svg width="45" height="21" viewBox="0 0 45 21" fill="none" xmlns="http://www.w3.org/2000/svg">
<path d="M7.52488 1.04024C8.16488 0.933577 8.96488 0.880243 9.92488 0.880243L11.3009 0.912243L11.2369 4.65624C11.2156 7.13091 11.1516 8.45358 11.0449 8.62424C10.8956 8.83758 10.6609 8.91224 10.3409 8.84824C10.0209 8.78424 9.78622 8.60291 9.63688 8.30424C9.44488 7.92024 9.40222 6.84291 9.50888 5.07224L9.66888 2.41624L7.20488 2.76824C5.71155 2.96024 4.60222 3.15224 3.87688 3.34424C3.13022 3.53624 2.60755 3.61091 2.30888 3.56824C2.01022 3.52558 1.86088 3.34424 1.86088 3.02424C1.86088 2.55491 2.09555 2.22424 2.56488 2.03224C3.03422 1.81891 3.97288 1.61624 5.38088 1.42424C6.06355 1.33891 6.77822 1.21091 7.52488 1.04024ZM5.38088 10.3522C5.85022 10.0536 6.14888 10.0962 6.27688 10.4802C6.38355 10.8216 6.45822 11.6642 6.50088 13.0082C6.52222 14.6082 6.61822 15.4829 6.78888 15.6322C6.91688 15.7602 7.91955 15.7709 9.79688 15.6642C10.9489 15.6002 11.7169 15.5789 12.1009 15.6002C12.4849 15.6216 12.7409 15.7176 12.8689 15.8882C13.2956 16.4216 13.1995 16.8802 12.5809 17.2642C12.3249 17.4349 12.1116 17.5309 11.9409 17.5522C11.7916 17.5522 11.6102 17.4989 11.3969 17.3922C11.0129 17.2002 10.4049 17.1576 9.57288 17.2642C8.61288 17.3496 7.63155 17.4349 6.62888 17.5202C5.71155 17.6056 4.61288 17.7442 3.33288 17.9362C2.20222 18.1282 1.49822 18.1176 1.22088 17.9042C0.580883 17.3496 0.676883 16.8909 1.50888 16.5282C1.97822 16.3362 2.58622 16.2082 3.33288 16.1442L4.93288 16.0162L4.99688 13.2962C4.99688 12.7416 4.99688 12.3042 4.99688 11.9842C5.01822 11.6429 5.03955 11.3549 5.06088 11.1202C5.10355 10.8856 5.14622 10.7149 5.18888 10.6082C5.25288 10.5016 5.31688 10.4162 5.38088 10.3522ZM18.0064 4.27224C18.241 3.97358 18.4757 3.82424 18.7104 3.82424C19.4144 3.82424 19.4144 4.50691 18.7104 5.87224C18.6677 5.95758 18.625 6.03224 18.5824 6.09624C18.049 7.05624 17.7824 7.70691 17.7824 8.04824C17.7824 8.30424 18.3264 9.11491 19.4144 10.4802C21.2491 12.6562 21.5904 13.7016 20.4384 13.6162C20.4171 13.6162 20.3957 13.6056 20.3744 13.5842C19.9264 13.5416 19.2544 12.9229 18.3584 11.7282C17.441 10.5549 16.9077 9.94691 16.7584 9.90424C16.6304 9.86158 16.417 10.1496 16.1184 10.7682C15.841 11.3869 15.649 12.0056 15.5424 12.6242C15.457 13.0082 15.361 13.2536 15.2544 13.3602C15.169 13.4669 14.977 13.5202 14.6784 13.5202C13.9957 13.5202 13.6437 13.3176 13.6224 12.9122C13.601 12.4856 13.8997 11.6642 14.5184 10.4482C16.225 7.05624 17.3877 4.99758 18.0064 4.27224ZM25.5904 4.20824C25.7824 3.97358 25.9531 3.85624 26.1024 3.85624C26.2517 3.85624 26.4651 3.98424 26.7424 4.24024C26.9984 4.49624 27.0731 4.77358 26.9664 5.07224C26.8171 5.37091 26.6997 7.16291 26.6144 10.4482C26.5717 12.7949 26.5184 14.2242 26.4544 14.7362C26.4117 15.2269 26.2731 15.5362 26.0384 15.6642C25.5691 15.9202 25.2597 15.8136 25.1104 15.3442C25.0037 14.9176 24.9397 13.9042 24.9184 12.3042C24.8757 10.2562 24.7584 9.21091 24.5664 9.16824C24.3744 9.10424 23.8731 9.20024 23.0624 9.45624C21.3344 10.0322 20.385 9.98958 20.2144 9.32824C20.129 8.98691 20.129 8.70958 20.2144 8.49624C20.2784 8.30424 20.7051 8.11224 21.4944 7.92024C22.2837 7.70691 23.1051 7.56824 23.9584 7.50424L24.9504 7.47224L25.1104 6.03224C25.2384 5.02958 25.3984 4.42158 25.5904 4.20824ZM29.8464 4.27224C29.8464 4.16558 29.9531 4.10158 30.1664 4.08024C30.3797 4.05891 30.6037 4.09091 30.8384 4.17624C31.073 4.24024 31.2437 4.33624 31.3504 4.46424C31.5637 4.72024 31.6171 5.11491 31.5104 5.64824C31.4251 6.16024 31.3717 7.98424 31.3504 11.1202C31.3291 12.3789 31.2971 13.3496 31.2544 14.0322C31.2331 14.6936 31.1797 15.2376 31.0944 15.6642C31.0091 16.0909 30.9024 16.3682 30.7744 16.4962C30.6464 16.6029 30.4544 16.6562 30.1984 16.6562C29.9211 16.6562 29.7504 16.2509 29.6864 15.4402C29.6224 14.6296 29.6331 12.8056 29.7184 9.96824C29.7184 9.56291 29.7184 9.14691 29.7184 8.72024C29.7397 8.29358 29.7504 7.89891 29.7504 7.53624C29.7717 7.17358 29.7824 6.82158 29.7824 6.48024C29.8037 6.13891 29.8144 5.84024 29.8144 5.58424C29.8357 5.32824 29.8464 5.10424 29.8464 4.91224C29.8464 4.72024 29.8464 4.57091 29.8464 4.46424C29.8464 4.33624 29.8464 4.27224 29.8464 4.27224ZM38.8489 0.336243C39.3609 0.208243 39.8729 0.197577 40.3849 0.304243C40.6836 0.368244 40.8649 0.560244 40.9289 0.880243C40.9929 1.17891 41.0462 2.18158 41.0889 3.88824C41.1102 5.78691 41.0569 7.05624 40.9289 7.69624C40.8009 8.31491 40.5022 8.62424 40.0329 8.62424C39.6062 8.62424 39.3396 8.54958 39.2329 8.40024C39.1475 8.27224 39.1902 7.20558 39.3609 5.20024C39.5529 3.23758 39.5529 2.19224 39.3609 2.06424C39.1689 1.93624 38.1449 2.07491 36.2889 2.48024C35.0089 2.75758 34.1982 2.90691 33.8569 2.92824C33.5155 2.94958 33.2595 2.86424 33.0889 2.67224C32.5555 2.16024 32.8542 1.72291 33.9849 1.36024L35.6169 0.976244C37.6009 0.592244 38.6782 0.37891 38.8489 0.336243ZM42.1449 10.4802C43.5102 10.1176 44.2356 10.3522 44.3209 11.1842C44.3636 11.4616 44.3316 11.6536 44.2249 11.7602C44.1182 11.8669 43.8622 11.9736 43.4569 12.0802C42.8169 12.2722 42.1449 12.3682 41.4409 12.3682H40.4169L40.2569 13.9362C40.1716 14.9816 40.2036 16.1336 40.3529 17.3922C40.4809 18.3096 40.5236 18.8749 40.4809 19.0882C40.4595 19.3229 40.3209 19.5469 40.0649 19.7602C39.7235 20.0589 39.4462 20.1762 39.2329 20.1122C38.8489 19.9842 38.6462 18.3096 38.6249 15.0882L38.5929 12.6562L37.1849 12.7842C36.3955 12.8696 35.3929 12.9762 34.1769 13.1042C33.4302 13.2109 32.8862 13.2216 32.5449 13.1362C32.2249 13.0296 32.0649 12.8056 32.0649 12.4642C32.0649 12.1442 32.2462 11.8562 32.6089 11.6002C32.9715 11.3229 33.3022 11.2162 33.6009 11.2802C34.0275 11.3656 35.3822 11.3016 37.6649 11.0882C39.9689 10.8749 41.4622 10.6722 42.1449 10.4802Z" fill="white"/>
</svg>
