<svg width="60" height="15" viewBox="0 0 60 15" fill="none" xmlns="http://www.w3.org/2000/svg">
<path d="M15.712 1.048C15.9253 0.898666 16.1493 0.855999 16.384 0.919999C16.5333 0.941333 16.6293 1.144 16.672 1.528C16.736 1.89067 16.768 2.65867 16.768 3.832V6.744L18.56 6.68C19.6053 6.616 20.3413 6.66933 20.768 6.84C21.216 6.98933 21.44 7.27733 21.44 7.704C21.44 8.00267 21.3227 8.184 21.088 8.248C20.8747 8.312 20.192 8.36533 19.04 8.408C17.4827 8.45067 16.6507 8.51467 16.544 8.6C16.4587 8.70667 16.352 9.72 16.224 11.64C16.224 11.64 16.224 11.6507 16.224 11.672C16.1173 13.08 16.0213 13.912 15.936 14.168C15.872 14.424 15.68 14.5627 15.36 14.584C15.1253 14.6267 14.944 14.616 14.816 14.552C14.7093 14.488 14.624 14.3173 14.56 14.04C14.496 13.7627 14.4747 13.4 14.496 12.952C14.5173 12.504 14.5707 11.832 14.656 10.936C14.8267 9.144 14.912 7.53333 14.912 6.104C14.912 4.99467 14.9973 3.90667 15.168 2.84C15.3387 1.752 15.52 1.15467 15.712 1.048ZM3.968 1.848C4.69333 1.37867 5.312 1.13333 5.824 1.112C6.336 1.09067 7.06133 1.29333 8 1.72C8.896 2.104 9.52533 2.456 9.888 2.776C10.2507 3.07467 10.5813 3.52267 10.88 4.12C11.264 5.03733 11.4027 5.95467 11.296 6.872C11.2107 7.78933 10.8693 8.65333 10.272 9.464C9.696 10.2747 8.97067 10.8293 8.096 11.128C7.62667 11.2987 7.104 11.3733 6.528 11.352C5.952 11.3307 5.38667 11.2453 4.832 11.096C4.27733 10.9467 3.72267 10.7227 3.168 10.424C2.63467 10.104 2.16533 9.73067 1.76 9.304C1.46133 9.00533 1.248 8.76 1.12 8.568C0.992 8.376 0.906667 8.17333 0.864 7.96C0.821333 7.74667 0.8 7.42667 0.8 7C0.821333 4.86667 1.87733 3.14933 3.968 1.848ZM8.544 3.768C7.92533 3.27733 7.264 2.98933 6.56 2.904C5.856 2.81867 5.23733 2.94667 4.704 3.288C3.57333 3.992 2.85867 4.77067 2.56 5.624C2.26133 6.456 2.38933 7.224 2.944 7.928C3.49867 8.61067 4.416 9.112 5.696 9.432L7.2 9.848L8.192 9.144C9.19467 8.48267 9.728 7.59733 9.792 6.488C9.856 5.37867 9.44 4.472 8.544 3.768ZM27.114 1.24C28.266 0.642666 29.5247 0.823999 30.89 1.784C31.9993 2.53067 32.7887 3.45867 33.258 4.568C33.7273 5.656 33.8127 6.76533 33.514 7.896C33.322 8.68533 33.0447 9.272 32.682 9.656C32.3407 10.04 31.786 10.392 31.018 10.712C30.2713 11.032 29.5887 11.192 28.97 11.192C28.458 11.2133 27.9033 11.1173 27.306 10.904C26.7087 10.6907 26.154 10.392 25.642 10.008C25.1513 9.624 24.7567 9.21867 24.458 8.792C24.1593 8.32267 23.978 7.94933 23.914 7.672C23.85 7.37333 23.8393 6.89333 23.882 6.232C23.946 5.208 24.1167 4.45067 24.394 3.96C24.65 3.46933 25.0447 2.95733 25.578 2.424C26.1113 1.89067 26.6233 1.496 27.114 1.24ZM30.09 3.096C29.4713 2.648 28.9593 2.44533 28.554 2.488C28.1487 2.50933 27.658 2.776 27.082 3.288C26.2287 4.09867 25.7273 4.93067 25.578 5.784C25.45 6.616 25.6953 7.40533 26.314 8.152C27.0393 9.02667 27.9247 9.47467 28.97 9.496C30.0367 9.496 30.9113 9.048 31.594 8.152C31.8073 7.896 31.946 7.64 32.01 7.384C32.074 7.10667 32.0847 6.70133 32.042 6.168C31.978 5.48533 31.8073 4.93067 31.53 4.504C31.2527 4.056 30.7727 3.58667 30.09 3.096ZM37.066 1.496C37.1513 1.34667 37.3967 1.29333 37.802 1.336C38.2073 1.37867 38.4207 1.47467 38.442 1.624C38.4847 1.98667 38.3993 4.952 38.186 10.52L37.994 14.52H37.258C37.0447 14.52 36.8953 14.52 36.81 14.52C36.7247 14.4987 36.65 14.4453 36.586 14.36C36.522 14.2533 36.4793 14.136 36.458 14.008C36.458 13.8587 36.4473 13.6133 36.426 13.272C36.3833 12.568 36.4473 10.4667 36.618 6.968C36.81 3.46933 36.9593 1.64533 37.066 1.496ZM41.1255 0.888C41.2535 0.759999 41.4135 0.674666 41.6055 0.631999C41.7975 0.589332 41.9575 0.589332 42.0855 0.631999C42.2348 0.674666 42.3095 0.759999 42.3095 0.888C42.3095 1.848 42.3522 3.30933 42.4375 5.272C42.5442 7.21333 42.6402 8.26933 42.7255 8.44C42.7895 8.61067 42.9602 8.728 43.2375 8.792C43.5362 8.856 44.1122 8.888 44.9655 8.888C46.1388 8.90933 47.0028 8.89867 47.5575 8.856C47.9202 8.83467 48.2402 8.92 48.5175 9.112C48.7522 9.304 48.8695 9.61333 48.8695 10.04C48.8908 10.4453 48.7842 10.6587 48.5495 10.68C48.1868 10.7227 46.9495 10.7227 44.8375 10.68C42.7255 10.616 41.6482 10.552 41.6055 10.488C41.5202 10.4453 41.3708 9.54933 41.1575 7.8C40.9442 6.136 40.8375 4.62133 40.8375 3.256C40.8375 1.86933 40.9335 1.08 41.1255 0.888ZM54.0215 0.952C54.1708 0.695999 54.4588 0.589332 54.8855 0.631999C54.9282 0.631999 54.9815 0.631999 55.0455 0.631999C55.3228 0.653333 55.4722 0.909333 55.4935 1.4C55.5148 1.86933 55.4722 3.544 55.3655 6.424C55.3228 7.02133 55.3015 7.49067 55.3015 7.832C55.1735 10.7547 55.0455 12.3547 54.9175 12.632C54.8108 12.7813 54.6722 12.8987 54.5015 12.984C54.2455 13.0907 54.0428 13.1227 53.8935 13.08C53.7655 13.0373 53.6588 12.888 53.5735 12.632C53.4882 12.376 53.4348 11.9813 53.4135 11.448C53.4135 10.8933 53.4242 10.1573 53.4455 9.24L53.5095 5.976L52.6455 6.104C51.8562 6.18933 51.0242 6.232 50.1495 6.232C49.5308 6.232 49.0828 6.21067 48.8055 6.168C48.5495 6.104 48.3682 5.98667 48.2615 5.816C47.8988 5.21867 48.2828 4.83467 49.4135 4.664L50.9495 4.504C52.4428 4.41867 53.2962 4.28 53.5095 4.088C53.7655 3.87467 53.8935 3.37333 53.8935 2.584C53.8935 1.79467 53.9362 1.25067 54.0215 0.952ZM58.0535 1.048C58.1815 0.877332 58.3948 0.813332 58.6935 0.855999C59.0135 0.898666 59.2695 1.016 59.4615 1.208C59.8028 1.63467 59.7388 4.93067 59.2695 11.096C59.1842 12.184 59.0988 12.8667 59.0135 13.144C58.9495 13.4 58.7788 13.592 58.5015 13.72C58.4588 13.7413 58.4055 13.7733 58.3415 13.816C58.0002 13.9653 57.7868 13.944 57.7015 13.752C57.5948 13.4533 57.6055 11.4907 57.7335 7.864C57.7548 7.26667 57.7655 6.808 57.7655 6.488C57.8935 3.01067 57.9895 1.19733 58.0535 1.048Z" fill="white"/>
</svg>
