<svg width="52" height="20" viewBox="0 0 52 20" fill="none" xmlns="http://www.w3.org/2000/svg">
<path d="M4.32098 0.712C6.00631 0.477332 7.31831 0.349332 8.25698 0.327999C8.68364 0.327999 8.98231 0.338666 9.15298 0.359999C9.32364 0.359999 9.44098 0.402665 9.50498 0.487999C9.56898 0.551999 9.60098 0.669333 9.60098 0.84C9.60098 1.416 9.12098 2.30133 8.16098 3.496C7.60631 4.2 7.32898 4.65867 7.32898 4.872C7.32898 4.97867 7.46764 5.17067 7.74498 5.448C8.04364 5.704 8.40631 5.97067 8.83298 6.248C9.06764 6.41867 9.27031 6.57867 9.44098 6.728C9.61164 6.856 9.75031 6.984 9.85698 7.112C9.98498 7.21867 10.081 7.32533 10.145 7.432C10.209 7.51733 10.2516 7.61333 10.273 7.72C10.3156 7.80533 10.337 7.89067 10.337 7.976C10.337 8.40267 10.2196 8.66933 9.98498 8.776C9.79298 8.84 9.33431 8.65867 8.60898 8.232C7.90498 7.784 7.36098 7.32533 6.97698 6.856C6.61431 6.51467 6.34764 6.344 6.17698 6.344C5.96364 6.344 5.55831 6.67467 4.96098 7.336C4.36364 7.99733 3.99031 8.53067 3.84098 8.936C3.73431 9.23467 3.60631 9.42667 3.45698 9.512C3.30764 9.576 3.06231 9.59733 2.72098 9.576C2.18764 9.512 1.88898 9.36267 1.82498 9.128C1.80364 9 1.98498 8.65867 2.36898 8.104C2.77431 7.54933 3.31831 6.86667 4.00098 6.056C4.68364 5.224 5.37698 4.424 6.08098 3.656C6.74231 2.952 7.07298 2.51467 7.07298 2.344C7.00898 2.23733 6.75298 2.19467 6.30498 2.216C5.87831 2.216 5.31298 2.26933 4.60898 2.376C3.92631 2.46133 3.32898 2.57867 2.81698 2.728C2.07031 2.96267 1.53698 2.99467 1.21698 2.824C0.939643 2.65333 0.800977 2.49333 0.800977 2.344C0.800977 2.19467 0.939643 1.94933 1.21698 1.608C1.38764 1.39467 1.68631 1.23467 2.11298 1.128C2.53964 0.999999 3.27564 0.861333 4.32098 0.712ZM12.609 5.768C12.609 3.016 12.705 1.544 12.897 1.352C13.089 1.16 13.3663 1.07467 13.729 1.096C13.985 1.13867 14.1343 1.37333 14.177 1.8C14.2196 2.20533 14.2303 3.42133 14.209 5.448C14.209 6.664 14.1876 7.56 14.145 8.136C14.1236 8.69067 14.0596 9.17067 13.953 9.576C13.8676 9.98133 13.7503 10.1627 13.601 10.12C13.4516 10.0773 13.249 10.056 12.993 10.056C12.929 10.0133 12.8756 9.97067 12.833 9.928C12.8116 9.88533 12.7796 9.8 12.737 9.672C12.7156 9.52267 12.6943 9.36267 12.673 9.192C12.6516 9.02133 12.6303 8.776 12.609 8.456C12.609 8.11467 12.609 7.74133 12.609 7.336C12.609 6.90933 12.609 6.38667 12.609 5.768ZM8.80098 11.592C9.67564 11.4213 10.4223 11.3787 11.041 11.464C11.6596 11.528 12.161 11.7307 12.545 12.072C12.929 12.392 13.217 12.8613 13.409 13.48C13.6223 14.056 13.6863 14.7387 13.601 15.528C13.537 16.3173 13.3556 16.9893 13.057 17.544C12.8863 17.9067 12.481 18.2693 11.841 18.632C11.2223 18.9947 10.7103 19.176 10.305 19.176C9.89964 19.176 9.44098 19.1013 8.92898 18.952C8.41698 18.824 7.92631 18.6427 7.45698 18.408C7.00898 18.1733 6.66764 17.928 6.43298 17.672C6.11298 17.3093 5.91031 17 5.82498 16.744C5.73964 16.488 5.69698 16.0507 5.69698 15.432C5.69698 13.2987 6.73164 12.0187 8.80098 11.592ZM11.553 13.448C11.4036 13.2773 10.945 13.192 10.177 13.192C9.40898 13.1707 8.81164 13.2347 8.38498 13.384C7.74498 13.6613 7.38231 14.1733 7.29698 14.92C7.23298 15.6453 7.49964 16.2533 8.09698 16.744C8.65164 17.2133 9.24898 17.4373 9.88898 17.416C10.529 17.416 11.0623 17.1813 11.489 16.712C11.7663 16.4133 11.9263 16.168 11.969 15.976C12.033 15.7627 12.033 15.4 11.969 14.888C11.8623 14.1627 11.7236 13.6827 11.553 13.448ZM22.041 4.264C22.0623 3.432 22.105 2.90933 22.169 2.696C22.233 2.46133 22.361 2.344 22.553 2.344C22.8516 2.344 23.1076 2.45067 23.321 2.664C23.4703 2.856 23.577 4.488 23.641 7.56C23.6836 9.544 23.6836 10.824 23.641 11.4C23.5983 11.976 23.481 12.3707 23.289 12.584C23.0543 12.7973 22.0943 13.032 20.409 13.288C18.745 13.544 17.689 13.6187 17.241 13.512C17.0063 13.4267 16.7716 12.8507 16.537 11.784C16.3023 10.696 16.1103 9.52267 15.961 8.264C15.833 6.984 15.7796 5.81067 15.801 4.744C15.8223 3.656 15.9503 3.06933 16.185 2.984C16.505 2.856 16.7716 2.984 16.985 3.368C17.1983 3.73067 17.3156 4.27467 17.337 5C17.337 5.448 17.337 5.768 17.337 5.96C17.337 6.152 17.369 6.35467 17.433 6.568C17.497 6.76 17.5396 6.87733 17.561 6.92C17.6036 6.96267 17.721 6.99467 17.913 7.016C18.105 7.03733 18.265 7.02667 18.393 6.984C18.5423 6.92 18.7876 6.83467 19.129 6.728C20.1316 6.45067 20.825 6.30133 21.209 6.28L21.945 6.216L22.041 4.264ZM22.073 8.104L21.273 8.136C20.7183 8.17867 20.0036 8.328 19.129 8.584C18.489 8.79733 18.1156 8.95733 18.009 9.064C17.9023 9.17067 17.881 9.43733 17.945 9.864C18.0303 10.3973 18.073 10.8347 18.073 11.176C18.073 11.3893 18.1476 11.5173 18.297 11.56C18.4676 11.6027 18.841 11.6133 19.417 11.592C20.185 11.5707 20.8463 11.4747 21.401 11.304C21.721 11.1973 21.913 11.0587 21.977 10.888C22.041 10.7173 22.073 10.28 22.073 9.576V8.104ZM28.889 3.816C29.2303 3.176 29.657 3.15467 30.169 3.752C30.3396 3.944 30.4356 4.41333 30.457 5.16C30.4783 5.90667 30.4356 7.51733 30.329 9.992C30.1796 13.8533 30.009 15.8907 29.817 16.104C29.6676 16.3387 29.4116 16.424 29.049 16.36C28.793 16.3173 28.6436 16.1253 28.601 15.784C28.5583 15.4213 28.5583 14.344 28.601 12.552L28.665 8.776L27.929 8.968C26.0943 9.416 25.1023 9.42667 24.953 9C24.7823 8.53067 24.889 8.168 25.273 7.912C25.6783 7.656 26.489 7.432 27.705 7.24L28.665 7.08V5.672C28.665 4.79733 28.7396 4.17867 28.889 3.816ZM49.715 2.504C49.9496 2.248 50.2376 2.16267 50.579 2.248C50.7496 2.29067 50.867 2.344 50.931 2.408C50.995 2.472 51.0376 2.664 51.059 2.984C51.0803 3.304 51.0696 3.688 51.027 4.136C50.9843 4.584 50.9203 5.32 50.835 6.344C50.6856 7.944 50.547 9.992 50.419 12.488C50.355 14.088 50.2803 15.08 50.195 15.464C50.131 15.8267 49.971 16.0507 49.715 16.136C49.459 16.2427 49.267 16.2747 49.139 16.232C49.011 16.1893 48.9043 16.0507 48.819 15.816C48.7336 15.56 48.7016 15.1653 48.723 14.632C48.7443 14.0773 48.7656 13.3413 48.787 12.424C48.851 10.0773 48.819 8.86133 48.691 8.776C48.5203 8.69067 48.0936 8.72267 47.411 8.872C47.2616 8.89333 47.0483 8.936 46.771 9C46.4936 9.04267 46.1843 9.10667 45.843 9.192C45.523 9.256 45.267 9.30933 45.075 9.352C44.179 9.52267 43.6243 9.52267 43.411 9.352C43.1336 9.13867 43.027 8.95733 43.091 8.808C43.1763 8.63733 43.475 8.38133 43.987 8.04C44.627 7.592 45.395 7.35733 46.291 7.336C47.251 7.31467 47.9976 7.176 48.531 6.92L49.331 6.6V4.744C49.331 3.48533 49.459 2.73867 49.715 2.504ZM38.387 3.4C39.3683 3.25067 39.891 3.15467 39.955 3.112C40.019 3.112 40.211 3.18667 40.531 3.336C40.851 3.528 41.0003 4.09333 40.979 5.032C40.979 5.94933 40.8083 7.69867 40.467 10.28L39.891 14.408H39.251C38.803 14.408 38.5363 14.2907 38.451 14.056C38.3443 13.7787 38.515 12.2533 38.963 9.48C39.3896 6.70667 39.507 5.24533 39.315 5.096C39.1016 4.98933 38.1843 5.128 36.563 5.512C33.875 6.17333 32.3816 6.22667 32.083 5.672C32.0403 5.52267 32.0723 5.352 32.179 5.16C32.2856 4.98933 33.0643 4.70133 34.515 4.296C35.9656 3.86933 37.2563 3.57067 38.387 3.4Z" fill="white"/>
</svg>
