<svg width="37" height="20" viewBox="0 0 37 20" fill="none" xmlns="http://www.w3.org/2000/svg">
<path d="M5.28098 1.232C7.35031 0.997332 8.66231 0.879999 9.21698 0.879999C9.77164 0.858666 10.1236 0.944 10.273 1.136C10.4223 1.328 10.4223 1.57333 10.273 1.872C10.145 2.14933 9.76098 2.72533 9.12098 3.6L8.28898 4.688L8.86498 5.136C9.24898 5.43467 9.50498 5.584 9.63298 5.584C9.73964 5.584 10.1343 5.79733 10.817 6.224C11.4783 6.69333 11.809 7.10933 11.809 7.472C11.809 8.32533 10.9876 8.25067 9.34498 7.248C8.98231 7.01333 8.72631 6.85333 8.57698 6.768C8.42764 6.68267 8.23564 6.58667 8.00098 6.48C7.76631 6.37333 7.60631 6.30933 7.52098 6.288C7.45698 6.24533 7.32898 6.23467 7.13698 6.256C6.94498 6.27733 6.81698 6.30933 6.75298 6.352C6.71031 6.39467 6.59298 6.49067 6.40098 6.64C6.23031 6.768 6.09164 6.896 5.98498 7.024C5.87831 7.13067 5.70764 7.32267 5.47298 7.6C4.91831 8.19733 4.50231 8.60267 4.22498 8.816C3.94764 9.02933 3.70231 9.11467 3.48898 9.072C2.80631 8.96533 2.66764 8.58133 3.07298 7.92C3.39298 7.42933 4.08631 6.65067 5.15298 5.584C7.07298 3.664 7.84098 2.66133 7.45698 2.576C7.41431 2.55467 7.37164 2.544 7.32898 2.544C7.17964 2.544 6.15564 2.72533 4.25698 3.088C3.04098 3.30133 2.23031 3.41867 1.82498 3.44C1.44098 3.46133 1.17431 3.39733 1.02498 3.248C0.79031 3.01333 0.72631 2.75733 0.832977 2.48C0.960977 2.18133 1.20631 1.968 1.56898 1.84C1.86764 1.712 3.10498 1.50933 5.28098 1.232ZM10.593 11.216C11.0623 10.96 11.489 10.8747 11.873 10.96C12.2783 11.0453 12.5556 11.2907 12.705 11.696C12.833 12.016 12.8543 12.272 12.769 12.464C12.6836 12.6347 12.4916 12.7627 12.193 12.848C11.9156 12.912 11.5103 12.9227 10.977 12.88C10.0596 12.8587 9.53698 12.9547 9.40898 13.168C9.25964 13.4027 9.18498 14.48 9.18498 16.4C9.18498 17.8293 9.15298 18.672 9.08898 18.928C9.04631 19.184 8.87564 19.3333 8.57698 19.376C8.17164 19.44 7.90498 19.3547 7.77698 19.12C7.60631 18.8427 7.55298 17.84 7.61698 16.112C7.63831 14.32 7.61698 13.3707 7.55298 13.264C7.48898 13.2 6.77431 13.2533 5.40898 13.424C3.68098 13.6373 2.61431 13.7333 2.20898 13.712C1.80364 13.6907 1.57964 13.52 1.53698 13.2C1.51564 13.072 1.55831 12.912 1.66498 12.72C1.77164 12.528 1.88898 12.368 2.01698 12.24C2.29431 12.0053 2.78498 11.8453 3.48898 11.76C4.21431 11.6747 5.70764 11.6213 7.96898 11.6C9.33431 11.5573 10.209 11.4293 10.593 11.216ZM19.5467 1.072C20.5281 0.879999 21.1894 0.986665 21.5307 1.392C21.6161 1.49867 21.7227 1.98933 21.8507 2.864C22.0001 3.71733 22.1174 4.57067 22.2027 5.424C22.2881 6.256 22.2987 6.71467 22.2347 6.8C22.1281 6.97067 21.6054 7.20533 20.6667 7.504C19.7494 7.80267 18.8427 8.03733 17.9467 8.208L16.4427 8.496L16.3467 9.712L16.2827 10.928L17.4667 10.768C17.7227 10.7253 18.2027 10.6613 18.9067 10.576C19.6107 10.4693 20.0481 10.3947 20.2187 10.352C21.2641 10.2453 21.8827 10.128 22.0747 10C22.2667 9.872 22.5227 9.95733 22.8427 10.256C23.1841 10.5547 23.3547 10.8427 23.3547 11.12C23.3547 11.824 22.9067 12.08 22.0107 11.888C21.4561 11.7813 20.9334 11.7813 20.4427 11.888C18.4161 12.3787 17.0401 12.624 16.3147 12.624C15.6747 12.624 15.2587 12.4747 15.0667 12.176C14.8961 11.8773 14.7574 11.1413 14.6507 9.968C14.5654 9.11467 14.5441 8.58133 14.5867 8.368C14.6507 8.15467 14.8321 7.92 15.1307 7.664C15.7921 7.152 17.0294 6.74667 18.8427 6.448C19.6107 6.34133 20.0907 6.16 20.2827 5.904C20.4747 5.62667 20.5174 5.09333 20.4107 4.304L20.1867 2.96L19.1947 2.896C18.5547 2.832 17.5094 2.97067 16.0587 3.312C14.9707 3.568 14.2347 3.67467 13.8507 3.632C13.4667 3.568 13.2747 3.33333 13.2747 2.928C13.2747 2.62933 13.6481 2.33067 14.3947 2.032C15.1414 1.73333 15.9841 1.53067 16.9227 1.424C17.9467 1.33867 18.8214 1.22133 19.5467 1.072ZM23.0987 16.144C23.7387 15.9947 24.1654 15.9627 24.3787 16.048C24.6134 16.112 24.7521 16.3467 24.7947 16.752C24.8374 17.1787 24.7521 17.4773 24.5387 17.648C24.3254 17.8187 23.9307 17.8933 23.3547 17.872C22.5227 17.8293 21.4134 17.8827 20.0267 18.032C18.6614 18.2027 17.5414 18.4267 16.6667 18.704C15.4081 19.024 14.6507 19.1627 14.3947 19.12C14.1387 19.0987 14.0107 18.832 14.0107 18.32C14.0107 17.9147 14.1174 17.616 14.3307 17.424C14.5654 17.232 14.9814 17.0827 15.5787 16.976C16.1761 16.8693 17.2107 16.7627 18.6827 16.656C21.0507 16.4427 22.5227 16.272 23.0987 16.144ZM31.583 1.072C32.5643 0.879999 33.2256 0.986665 33.567 1.392C33.6523 1.49867 33.759 1.98933 33.887 2.864C34.0363 3.71733 34.1536 4.57067 34.239 5.424C34.3243 6.256 34.335 6.71467 34.271 6.8C34.1643 6.97067 33.6416 7.20533 32.703 7.504C31.7856 7.80267 30.879 8.03733 29.983 8.208L28.479 8.496L28.383 9.712L28.319 10.928L29.503 10.768C29.759 10.7253 30.239 10.6613 30.943 10.576C31.647 10.4693 32.0843 10.3947 32.255 10.352C33.3003 10.2453 33.919 10.128 34.111 10C34.303 9.872 34.559 9.95733 34.879 10.256C35.2203 10.5547 35.391 10.8427 35.391 11.12C35.391 11.824 34.943 12.08 34.047 11.888C33.4923 11.7813 32.9696 11.7813 32.479 11.888C30.4523 12.3787 29.0763 12.624 28.351 12.624C27.711 12.624 27.295 12.4747 27.103 12.176C26.9323 11.8773 26.7936 11.1413 26.687 9.968C26.6016 9.11467 26.5803 8.58133 26.623 8.368C26.687 8.15467 26.8683 7.92 27.167 7.664C27.8283 7.152 29.0656 6.74667 30.879 6.448C31.647 6.34133 32.127 6.16 32.319 5.904C32.511 5.62667 32.5536 5.09333 32.447 4.304L32.223 2.96L31.231 2.896C30.591 2.832 29.5456 2.97067 28.095 3.312C27.007 3.568 26.271 3.67467 25.887 3.632C25.503 3.568 25.311 3.33333 25.311 2.928C25.311 2.62933 25.6843 2.33067 26.431 2.032C27.1776 1.73333 28.0203 1.53067 28.959 1.424C29.983 1.33867 30.8576 1.22133 31.583 1.072ZM35.135 16.144C35.775 15.9947 36.2016 15.9627 36.415 16.048C36.6496 16.112 36.7883 16.3467 36.831 16.752C36.8736 17.1787 36.7883 17.4773 36.575 17.648C36.3616 17.8187 35.967 17.8933 35.391 17.872C34.559 17.8293 33.4496 17.8827 32.063 18.032C30.6976 18.2027 29.5776 18.4267 28.703 18.704C27.4443 19.024 26.687 19.1627 26.431 19.12C26.175 19.0987 26.047 18.832 26.047 18.32C26.047 17.9147 26.1536 17.616 26.367 17.424C26.6016 17.232 27.0176 17.0827 27.615 16.976C28.2123 16.8693 29.247 16.7627 30.719 16.656C33.087 16.4427 34.559 16.272 35.135 16.144Z" fill="white"/>
</svg>
