<svg width="36" height="24" viewBox="0 0 36 24" fill="none" xmlns="http://www.w3.org/2000/svg">
<path d="M4.608 0.671999C5.54667 0.479999 6.31467 0.362666 6.912 0.32C7.38133 0.32 7.65867 0.458666 7.744 0.735998C7.85067 0.991999 7.97867 1.92 8.128 3.52C8.17067 3.86133 8.192 4.14933 8.192 4.384C8.192 4.59733 8.17067 4.81067 8.128 5.024C8.08533 5.23733 8 5.408 7.872 5.536C7.744 5.664 7.59467 5.792 7.424 5.92C7.25333 6.048 6.99733 6.16533 6.656 6.272C6.31467 6.37867 5.96267 6.48533 5.6 6.592C5.23733 6.67733 4.768 6.79467 4.192 6.944C3.872 7.008 3.66933 7.104 3.584 7.232C3.52 7.36 3.488 7.63733 3.488 8.064C3.488 8.61867 3.584 8.97067 3.776 9.12C3.98933 9.248 4.43733 9.248 5.12 9.12C5.93067 8.97067 6.48533 8.832 6.784 8.704C7.21067 8.55467 7.584 8.544 7.904 8.672C8.24533 8.77867 8.42667 8.992 8.448 9.312C8.46933 9.504 8.46933 9.664 8.448 9.792C8.448 9.92 8.39467 10.0373 8.288 10.144C8.18133 10.2293 8.04267 10.304 7.872 10.368C7.70133 10.4107 7.46667 10.464 7.168 10.528C6.528 10.6133 5.99467 10.7307 5.568 10.88C5.184 11.0293 4.64 11.1147 3.936 11.136C3.232 11.136 2.784 11.0613 2.592 10.912C1.99467 10.5493 1.696 9.65333 1.696 8.224C1.696 7.60533 1.73867 7.17867 1.824 6.944C1.93067 6.688 2.144 6.38933 2.464 6.048C2.976 5.57867 3.456 5.344 3.904 5.344C4.37333 5.344 4.96 5.17333 5.664 4.832C6.15467 4.59733 6.44267 4.416 6.528 4.288C6.63467 4.16 6.656 3.89333 6.592 3.488C6.48533 2.89067 6.41067 2.51733 6.368 2.368C6.28267 2.19733 6.00533 2.144 5.536 2.208C5.06667 2.272 4.26667 2.47467 3.136 2.816C2.21867 3.11467 1.632 3.264 1.376 3.264C1.12 3.264 0.938667 3.14667 0.832 2.912C0.682667 2.48533 0.938667 2.08 1.6 1.696C2.26133 1.29067 3.264 0.949333 4.608 0.671999ZM12.064 6.304C12.0213 4 12.0213 2.63467 12.064 2.208C12.1067 1.78133 12.256 1.568 12.512 1.568C13.088 1.568 13.4187 1.77067 13.504 2.176C13.6107 2.56 13.664 3.95733 13.664 6.368V10.944L13.056 11.168C12.608 11.296 12.352 11.3173 12.288 11.232C12.2027 11.1253 12.128 9.48267 12.064 6.304ZM7.296 13.856C8.68267 13.5573 9.824 13.4293 10.72 13.472C11.7013 13.5147 12.3307 13.7387 12.608 14.144C12.9067 14.5493 13.056 15.4773 13.056 16.928C13.056 17.3333 13.056 17.632 13.056 17.824C13.056 18.016 13.0347 18.24 12.992 18.496C12.9493 18.7307 12.9067 18.8907 12.864 18.976C12.8427 19.0613 12.768 19.168 12.64 19.296C12.512 19.4027 12.384 19.4667 12.256 19.488C12.1493 19.5093 11.9573 19.5413 11.68 19.584C11.424 19.6267 11.1787 19.648 10.944 19.648C10.7307 19.648 10.4 19.648 9.952 19.648C8.736 19.648 7.92533 19.744 7.52 19.936C7.136 20.1067 6.976 20.48 7.04 21.056C7.06133 21.4187 7.12533 21.632 7.232 21.696C7.36 21.76 7.65867 21.76 8.128 21.696C8.74667 21.6107 9.792 21.568 11.264 21.568C12.224 21.568 12.8213 21.5893 13.056 21.632C13.312 21.6747 13.4613 21.8027 13.504 22.016C13.568 22.3573 13.4827 22.6027 13.248 22.752C13.0347 22.9013 12.576 23.008 11.872 23.072C11.1467 23.136 10.0907 23.264 8.704 23.456C7.33867 23.648 6.56 23.6907 6.368 23.584C5.83467 23.392 5.48267 22.7413 5.312 21.632C5.16267 20.5227 5.29067 19.7013 5.696 19.168C5.888 18.9333 6.144 18.7733 6.464 18.688C6.784 18.5813 7.43467 18.4747 8.416 18.368C9.93067 18.2187 10.784 18.1013 10.976 18.016C11.1893 17.952 11.264 17.4827 11.2 16.608L11.136 15.232L9.6 15.296C8.66133 15.3387 7.65867 15.52 6.592 15.84C5.71733 16.1173 5.14133 16.2347 4.864 16.192C4.608 16.1493 4.48 15.9253 4.48 15.52C4.48 15.0933 4.66133 14.7733 5.024 14.56C5.38667 14.3467 6.144 14.112 7.296 13.856ZM29.2208 5.632C29.3274 5.44 29.4554 5.35467 29.6048 5.376C29.7754 5.376 29.9994 5.472 30.2768 5.664C30.4688 5.81333 30.5754 6.06933 30.5968 6.432C30.6394 6.77333 30.6394 7.56267 30.5968 8.8L30.4688 11.68L32.5168 11.52C33.7114 11.4133 34.5008 11.4133 34.8848 11.52C35.2688 11.6053 35.4608 11.8507 35.4608 12.256C35.4608 12.576 35.3221 12.7893 35.0448 12.896C34.7888 12.9813 34.2021 13.0453 33.2848 13.088C32.4314 13.1307 31.7274 13.2053 31.1728 13.312L30.2768 13.504L30.1808 15.968C30.1381 16.864 30.0741 17.504 29.9888 17.888C29.9034 18.272 29.7754 18.5387 29.6048 18.688C29.4341 18.8373 29.1568 18.912 28.7728 18.912C28.5594 18.912 28.4314 18.7627 28.3888 18.464C28.3674 18.144 28.4101 17.2267 28.5168 15.712C28.6448 13.28 28.7514 11.1147 28.8368 9.216C28.9648 7.06133 29.0928 5.86667 29.2208 5.632ZM24.5488 6.272C24.8048 6.016 25.1034 6.02667 25.4448 6.304C25.7861 6.56 25.9141 6.88 25.8288 7.264C25.7861 7.56267 25.3914 7.808 24.6448 8L23.4928 8.256L23.2688 10.528C23.2261 11.0187 23.1941 11.4027 23.1728 11.68C23.1728 11.9573 23.1621 12.2347 23.1408 12.512C23.1408 12.7893 23.1621 12.992 23.2048 13.12C23.2474 13.248 23.2901 13.376 23.3328 13.504C23.3754 13.6107 23.4501 13.6853 23.5568 13.728C23.6848 13.7493 23.8021 13.7707 23.9088 13.792C24.0368 13.792 24.2181 13.792 24.4528 13.792C24.9648 13.7707 25.2634 13.792 25.3488 13.856C25.4554 13.92 25.5088 14.1333 25.5088 14.496C25.5088 14.688 25.4981 14.8267 25.4768 14.912C25.4768 14.9973 25.4234 15.0827 25.3168 15.168C25.2314 15.232 25.1248 15.2853 24.9968 15.328C24.8901 15.3493 24.6768 15.392 24.3568 15.456C23.7594 15.5413 22.7994 15.7227 21.4768 16C18.2341 16.64 16.5061 16.8853 16.2928 16.736C16.1434 16.6507 16.0688 16.416 16.0688 16.032C16.0688 15.7973 16.1328 15.616 16.2608 15.488C16.3888 15.36 16.6234 15.232 16.9648 15.104L17.8608 14.816L17.7008 13.536C17.5941 12.6187 17.6154 11.6053 17.7648 10.496C17.9141 9.32267 17.9781 8.704 17.9568 8.64C17.8928 8.59733 17.6688 8.64 17.2848 8.768C15.8981 9.32267 15.0341 9.54667 14.6928 9.44C14.4368 9.33333 14.2661 9.152 14.1808 8.896C14.1168 8.61867 14.1701 8.384 14.3408 8.192C14.6181 7.85067 15.4394 7.53067 16.8048 7.232C18.1914 6.912 19.6848 6.70933 21.2848 6.624C23.3114 6.496 24.3994 6.37867 24.5488 6.272ZM21.7968 11.232C21.7968 11.0827 21.8074 10.8907 21.8288 10.656C21.8501 9.29067 21.8074 8.512 21.7008 8.32C21.5941 8.128 21.1994 8.10667 20.5168 8.256C20.4101 8.27733 20.3248 8.29867 20.2608 8.32C19.9194 8.384 19.7061 8.50133 19.6208 8.672C19.5354 8.84267 19.4608 9.32267 19.3968 10.112C19.3114 10.9867 19.2688 11.9147 19.2688 12.896C19.2901 13.8773 19.3328 14.4213 19.3968 14.528C19.4821 14.5707 19.8874 14.5493 20.6128 14.464L21.7328 14.304L21.7968 11.232Z" fill="white"/>
</svg>
