<svg width="33" height="21" viewBox="0 0 33 21" fill="none" xmlns="http://www.w3.org/2000/svg">
<path d="M7.584 4.312C7.79733 4.16267 7.968 4.09867 8.096 4.12C8.224 4.12 8.40533 4.20533 8.64 4.376C8.78933 4.52533 8.87467 4.90933 8.896 5.528C8.93867 6.14667 8.928 7.52267 8.864 9.656C8.75733 12.9627 8.608 14.712 8.416 14.904C8.18133 15.1173 7.11467 15.3307 5.216 15.544C3.31733 15.736 2.272 15.7573 2.08 15.608C1.824 15.3947 1.61067 14.872 1.44 14.04C1.29067 13.1867 1.14133 11.7467 0.992 9.72C0.821333 7.77867 0.757333 6.52 0.8 5.944C0.864 5.368 1.07733 5.02667 1.44 4.92C1.76 4.792 2.016 4.952 2.208 5.4C2.4 5.848 2.496 6.50933 2.496 7.384C2.496 8.23733 2.528 8.73867 2.592 8.888C2.656 9.03733 2.86933 9.10133 3.232 9.08C3.57333 9.08 4.37333 8.97333 5.632 8.76L7.36 8.472L7.328 6.488C7.264 5.16533 7.34933 4.44 7.584 4.312ZM7.392 10.488L6.528 10.456C5.952 10.4133 5.41867 10.4667 4.928 10.616C4.05333 10.8293 3.57333 10.9467 3.488 10.968C3.168 11.032 2.96533 11.1387 2.88 11.288C2.79467 11.416 2.752 11.7253 2.752 12.216C2.752 12.984 2.90133 13.4533 3.2 13.624C3.49867 13.7947 4.16 13.8053 5.184 13.656C6.29333 13.5067 6.92267 13.3467 7.072 13.176C7.2 13.048 7.28533 12.568 7.328 11.736L7.392 10.488ZM13.184 5.048C13.6107 4.74933 14.0053 4.792 14.368 5.176C14.56 5.432 14.5813 7.72533 14.432 12.056L14.24 18.52L13.632 18.584C13.184 18.648 12.9067 18.5733 12.8 18.36C12.6293 18.104 12.608 15.8533 12.736 11.608C12.864 7.34133 13.0133 5.15467 13.184 5.048ZM19.0565 0.535999C19.3125 0.365332 19.5472 0.311999 19.7605 0.375999C19.9098 0.397333 20.0058 0.546666 20.0485 0.823999C20.0912 1.08 20.1018 1.60266 20.0805 2.392L19.9845 4.408L21.7765 4.248C22.5658 4.20533 23.0672 4.20533 23.2805 4.248C23.5152 4.26933 23.6858 4.376 23.7925 4.568C23.9632 4.84533 23.8245 5.31467 23.3765 5.976C22.9072 6.616 22.6192 6.98933 22.5125 7.096C22.4272 7.13867 22.2352 7.43733 21.9365 7.992C21.6592 8.52533 21.5205 8.83467 21.5205 8.92C21.5205 9.02667 21.9792 9.432 22.8965 10.136C23.8352 10.8187 24.3045 11.3733 24.3045 11.8C24.3045 12.6533 23.8352 12.8133 22.8965 12.28C22.4485 12.024 21.9365 11.6187 21.3605 11.064L20.3365 10.072L19.5365 11.032C19.0245 11.6507 18.7685 12.0667 18.7685 12.28C18.7685 12.5573 18.5658 12.7707 18.1605 12.92C17.7765 13.048 17.4245 13.0373 17.1045 12.888C16.7418 12.7173 16.5498 12.5573 16.5285 12.408C16.5072 12.2587 16.6352 12.0667 16.9125 11.832C17.2112 11.576 17.7978 10.872 18.6725 9.72C19.6112 8.44 20.1658 7.71467 20.3365 7.544C20.5498 7.352 20.7738 7.04267 21.0085 6.616L21.3285 6.04L19.8565 6.2C19.1952 6.264 18.2565 6.40267 17.0405 6.616C16.2725 6.76533 15.7392 6.808 15.4405 6.744C15.1418 6.65867 14.9925 6.456 14.9925 6.136C14.9925 5.77333 15.1312 5.51733 15.4085 5.368C15.6858 5.19733 16.1552 5.09067 16.8165 5.048C17.6485 4.984 18.1392 4.90933 18.2885 4.824C18.4805 4.71733 18.5978 4.00267 18.6405 2.68C18.6832 1.37867 18.8218 0.663999 19.0565 0.535999ZM27.3125 3.416C27.5045 3.18133 27.6645 3.07467 27.7925 3.096C27.9418 3.096 28.1552 3.23467 28.4325 3.512C28.6032 3.72533 28.6885 3.91733 28.6885 4.088C28.7098 4.23733 28.6672 4.48267 28.5605 4.824C28.3898 5.35733 28.3472 5.66667 28.4325 5.752C28.5605 5.88 29.0938 5.83733 30.0325 5.624C31.0565 5.41067 31.7285 5.32533 32.0485 5.368C32.3898 5.38933 32.5925 5.54933 32.6565 5.848C32.7845 6.33867 32.7312 6.66933 32.4965 6.84C32.2618 6.98933 31.6858 7.11733 30.7685 7.224C29.5738 7.33067 28.8272 7.46933 28.5285 7.64C28.2512 7.81067 28.1232 8.22667 28.1445 8.888L28.1765 9.976L30.1285 9.912C31.3658 9.848 32.0912 9.95467 32.3045 10.232C32.7525 10.744 32.4645 11.128 31.4405 11.384C30.8858 11.512 30.0645 11.6187 28.9765 11.704L27.9205 11.8L28.0165 13.176C28.0592 13.7947 28.0485 14.2107 27.9845 14.424C27.9205 14.6373 27.7392 14.84 27.4405 15.032C26.9072 15.3733 26.5872 15.3947 26.4805 15.096C26.3525 14.7547 26.3312 13.5707 26.4165 11.544C26.6938 6.552 26.9925 3.84267 27.3125 3.416ZM20.4325 16.28C20.5392 16.0027 20.8165 15.896 21.2645 15.96C21.5632 15.9813 21.7445 16.0667 21.8085 16.216C21.8725 16.3653 21.9045 16.7707 21.9045 17.432C21.9045 18.392 21.9472 18.9147 22.0325 19C22.1178 19.064 23.0672 18.9893 24.8805 18.776C26.3098 18.584 27.2272 18.5093 27.6325 18.552C28.0592 18.5947 28.3152 18.7973 28.4005 19.16C28.5072 19.544 28.4325 19.8533 28.1765 20.088C27.9205 20.344 27.6218 20.4293 27.2805 20.344C26.8752 20.2373 25.8405 20.312 24.1765 20.568C23.0885 20.7387 22.3098 20.824 21.8405 20.824C21.3925 20.8453 21.0618 20.7813 20.8485 20.632C20.6352 20.504 20.4965 20.2587 20.4325 19.896C20.3258 19.3627 20.2725 18.6907 20.2725 17.88C20.2725 17.0693 20.3258 16.536 20.4325 16.28Z" fill="white"/>
</svg>
