<?xml version="1.0" standalone="no"?>
<!DOCTYPE svg PUBLIC "-//W3C//DTD SVG 20010904//EN"
 "http://www.w3.org/TR/2001/REC-SVG-20010904/DTD/svg10.dtd">
<svg version="1.0" xmlns="http://www.w3.org/2000/svg"
 width="837.000000pt" height="837.000000pt" viewBox="0 0 837.000000 837.000000"
 preserveAspectRatio="xMidYMid meet">
<metadata>
Created by potrace 1.14, written by Peter Selinger 2001-2017
</metadata>
<g transform="translate(0.000000,837.000000) scale(0.100000,-0.100000)"
fill="#000000" stroke="none">
<path d="M1955 6693 c-67 -20 -165 -92 -165 -122 0 -6 -4 -11 -9 -11 -5 0 -23
-37 -41 -82 -18 -46 -39 -96 -46 -113 -7 -16 -29 -73 -49 -125 -21 -52 -75
-192 -122 -310 -47 -118 -109 -276 -138 -350 -238 -604 -287 -727 -295 -745
-5 -11 -21 -51 -35 -90 -14 -38 -30 -79 -35 -90 -5 -11 -48 -119 -96 -240 -47
-121 -115 -294 -152 -385 -62 -155 -66 -170 -66 -245 -1 -115 13 -154 82 -222
73 -73 166 -100 276 -79 46 9 85 27 461 211 154 75 340 166 413 201 73 36 178
87 233 114 l100 49 -6 -57 c-7 -75 -14 -140 -20 -177 -3 -16 -7 -57 -10 -90
-4 -33 -8 -72 -11 -87 -2 -15 -6 -47 -9 -70 -7 -73 -49 -436 -60 -518 -2 -19
-7 -60 -10 -90 -4 -30 -8 -66 -10 -80 -2 -14 -7 -54 -10 -90 -4 -36 -8 -72
-10 -80 -2 -8 -6 -44 -9 -80 -4 -36 -8 -76 -10 -90 -35 -219 -17 -317 74 -408
94 -94 243 -109 363 -38 23 13 232 216 465 450 232 234 422 425 422 423 0 -1
20 -99 44 -217 25 -118 47 -226 50 -240 18 -92 91 -447 126 -610 22 -107 47
-229 56 -270 8 -41 27 -97 41 -125 70 -134 219 -197 354 -151 47 16 132 74
145 97 51 95 57 116 57 190 0 42 -5 96 -11 120 -11 41 -155 737 -166 804 -3
17 -13 62 -21 100 -8 39 -24 113 -35 165 -10 52 -36 174 -55 270 -20 96 -38
182 -40 190 -2 8 -11 55 -20 103 l-18 89 106 106 c58 59 169 171 246 250 l141
142 47 -33 c27 -18 197 -133 378 -255 182 -122 398 -267 480 -323 716 -484
847 -569 896 -583 61 -18 119 -20 171 -6 21 6 39 10 41 8 1 -2 13 7 27 20 13
12 27 22 31 22 14 0 68 64 86 100 23 47 25 56 28 127 4 87 -31 173 -95 231
-14 13 -123 89 -242 169 -120 81 -218 149 -218 152 0 3 21 6 48 7 42 1 235 9
442 19 41 2 138 6 215 10 77 3 176 8 220 10 44 2 143 7 220 10 384 16 528 26
565 37 91 28 154 79 191 155 11 23 20 44 20 45 0 2 4 19 8 39 23 101 -35 234
-129 294 -83 52 -133 57 -455 41 -66 -4 -163 -9 -215 -11 -253 -12 -334 -16
-440 -20 -63 -3 -151 -7 -195 -10 -80 -5 -257 -13 -452 -20 l-102 -4 25 57
c14 31 38 89 54 127 15 39 48 117 73 175 24 58 65 157 92 220 26 63 53 129 60
145 8 17 43 100 78 185 36 85 91 216 122 290 77 182 85 207 91 267 6 56 -15
146 -44 192 -18 28 -79 86 -90 86 -4 0 -15 6 -25 15 -10 8 -21 15 -25 16 -4 0
-23 4 -42 8 -48 10 -111 11 -135 2 -149 -55 -175 -90 -305 -406 -29 -69 -58
-138 -65 -155 -8 -16 -66 -156 -130 -310 -64 -154 -134 -320 -155 -370 -22
-49 -84 -198 -139 -330 -55 -132 -107 -257 -116 -278 l-16 -38 -225 152 -225
153 120 120 c477 481 500 506 519 581 10 36 17 112 12 125 -1 3 -3 13 -5 23
-2 10 -7 26 -11 35 -4 9 -8 22 -10 29 -8 38 -80 110 -142 142 -51 26 -154 34
-206 16 -20 -7 -36 -10 -36 -6 0 3 -4 1 -8 -4 -4 -6 -20 -17 -36 -25 -16 -8
-181 -168 -367 -355 l-338 -340 -222 150 c-123 83 -322 217 -443 299 -122 82
-241 158 -266 169 -67 30 -190 29 -250 -3 -42 -21 -142 -110 -125 -110 5 0 1
-8 -7 -17 -20 -25 -38 -92 -38 -144 0 -49 8 -95 75 -414 25 -121 59 -285 75
-365 17 -80 46 -221 65 -315 20 -93 38 -181 41 -195 2 -14 9 -49 15 -78 9 -47
9 -56 -8 -74 -58 -64 -471 -478 -477 -478 -4 0 -5 3 -3 8 3 4 8 36 12 72 3 36
8 76 10 90 4 27 11 90 20 180 4 30 8 66 10 80 2 14 6 50 10 80 3 30 10 89 15
130 5 41 12 98 15 125 3 28 7 68 10 90 2 22 7 60 10 85 14 126 26 228 31 255
2 17 7 75 10 130 6 90 4 106 -16 155 -13 30 -30 61 -38 68 -9 6 -12 12 -8 12
19 0 -62 62 -112 86 -107 51 -189 35 -432 -86 -69 -34 -170 -84 -225 -110 -55
-27 -197 -95 -315 -153 -118 -58 -216 -104 -218 -102 -2 2 39 110 91 242 53
131 124 312 160 403 36 91 104 264 152 385 382 965 363 913 363 995 0 195
-187 337 -373 283z m1894 -2319 l63 -42 -65 -67 -65 -67 -20 88 c-11 49 -23
107 -27 128 l-7 39 29 -18 c15 -10 57 -37 92 -61z"/>
</g>
</svg>
