<svg width="32" height="61" viewBox="0 0 32 61" fill="none" xmlns="http://www.w3.org/2000/svg">
<path d="M29.9373 59.4269C26.3787 58.02 22.2709 57.4705 19.4688 54.6685C14.0441 49.2437 12.258 39.7074 10.657 32.5683C8.73808 24.0121 7.93627 14.9551 9.63478 6.27379C9.8993 4.92182 9.98668 3.39067 10.3397 2.07936C10.5062 1.46092 8.71213 3.36608 8.48924 3.63024C6.98575 5.41215 5.3888 7.10656 3.80134 8.81161C3.53606 9.09654 2.14346 10.8782 2.19758 10.6797C2.9486 7.92599 5.45625 4.5245 7.87241 2.97816C8.58467 2.52232 9.18279 1.92644 9.93438 1.55064C10.1478 1.44395 11.3456 3.08141 11.5381 3.29539C13.3599 5.31952 15.003 7.37713 16.931 9.30507" stroke="white" stroke-width="3" stroke-linecap="round"/>
</svg>
